<?xml version="1.0" encoding="iso-8859-1"?>
<!-- Generator: Adobe Illustrator 19.0.0, SVG Export Plug-In . SVG Version: 6.00 Build 0)  -->
<svg xmlns="http://www.w3.org/2000/svg" xmlns:xlink="http://www.w3.org/1999/xlink" version="1.1" id="Capa_1" x="0px" y="0px" viewBox="0 0 479.998 479.998" style="enable-background:new 0 0 479.998 479.998;" xml:space="preserve" width="512px" height="512px">
<g>
	<g>
		<path d="M239.999,295.998c-22.091,0-40,17.909-40,40c0.026,22.08,17.92,39.974,40,40c22.091,0,40-17.909,40-40    C279.999,313.907,262.091,295.998,239.999,295.998z M239.999,359.998c-13.255,0-24-10.745-24-24s10.745-24,24-24s24,10.745,24,24    S253.254,359.998,239.999,359.998z" fill="#FFFFFF"/>
	</g>
</g>
<g>
	<g>
		<path d="M374.644,336.011c-3.388-9.6-12.464-16.018-22.645-16.013h-16c-13.255,0-24,10.745-24,24v32c0,4.418-3.582,8-8,8h-128    c-4.418,0-8-3.582-8-8v-32c0-13.255-10.745-24-24-24h-16c-13.255,0-24,10.745-24,24c0.005,10.167,6.415,19.227,16,22.616v9.384    c0.04,30.911,25.089,55.96,56,56h8v40c0,4.418,3.582,8,8,8h96c4.418,0,8-3.582,8-8v-40h8c30.911-0.04,55.96-25.089,56-56v-9.368    C372.498,362.219,379.055,348.51,374.644,336.011z M351.999,351.998c-4.418,0-8,3.582-8,8v16c-0.026,22.08-17.92,39.974-40,40h-16    c-4.418,0-8,3.582-8,8v40h-80v-40c0-4.418-3.582-8-8-8h-16c-22.08-0.026-39.974-17.92-40-40v-16c0-4.418-3.582-8-8-8s-8-3.582-8-8    s3.582-8,8-8h16c4.418,0,8,3.582,8,8v32c0,13.255,10.745,24,24,24h128c13.255,0,24-10.745,24-24v-32c0-4.418,3.582-8,8-8h16    c4.418,0,8,3.582,8,8S356.417,351.998,351.999,351.998z" fill="#FFFFFF"/>
	</g>
</g>
<g>
	<g>
		<path d="M255.999,199.998h-24c-13.255,0-24,10.745-24,24h16c0-4.418,3.582-8,8-8h24c4.418,0,8,3.582,8,8s-3.582,8-8,8    c-13.255,0-24,10.745-24,24h16c0-4.418,3.582-8,8-8c13.255,0,24-10.745,24-24S269.254,199.998,255.999,199.998z" fill="#FFFFFF"/>
	</g>
</g>
<g>
	<g>
		<rect x="231.999" y="263.998" width="16" height="16" fill="#FFFFFF"/>
	</g>
</g>
<g>
	<g>
		<path d="M159.999,71.998h-64v-16c0.001-3.235-1.947-6.153-4.936-7.392c-2.99-1.239-6.432-0.553-8.72,1.736l-40,40    c-3.123,3.124-3.123,8.188,0,11.312l40,40c3.125,3.124,8.19,3.123,11.314-0.002c1.499-1.5,2.342-3.534,2.342-5.654v-16h56v56    c0,4.418,3.582,8,8,8h32c4.418,0,8-3.582,8-8v-64C199.973,89.918,182.08,72.025,159.999,71.998z M183.999,167.998h-16v-48    c0-8.837-7.163-16-16-16h-64c-4.418,0-8,3.582-8,8v4.688L59.311,95.998L79.999,75.31v4.688c0,4.418,3.582,8,8,8h72    c13.255,0,24,10.745,24,24V167.998z" fill="#FFFFFF"/>
	</g>
</g>
<g>
	<g>
		<path d="M437.655,90.342l-40-40c-3.125-3.124-8.19-3.123-11.314,0.002c-1.499,1.5-2.342,3.534-2.342,5.654v16h-64    c-22.08,0.026-39.974,17.92-40,40v64c0,4.418,3.582,8,8,8h32c4.418,0,8-3.582,8-8v-56h56v16c-0.001,3.235,1.947,6.153,4.936,7.392    c2.99,1.239,6.432,0.553,8.72-1.736l40-40C440.778,98.53,440.778,93.466,437.655,90.342z M399.999,116.686v-4.688    c0-4.418-3.582-8-8-8h-64c-8.837,0-16,7.163-16,16v48h-16v-56c0-13.255,10.745-24,24-24h72c4.418,0,8-3.582,8-8V75.31    l20.688,20.688L399.999,116.686z" fill="#FFFFFF"/>
	</g>
</g>
<g>
	<g>
		<path d="M285.655,42.342l-40-40c-3.124-3.123-8.188-3.123-11.312,0l-40,40c-3.124,3.125-3.123,8.19,0.002,11.314    c1.5,1.499,3.534,2.342,5.654,2.342h16v120c0,4.418,3.582,8,8,8h32c4.418,0,8-3.582,8-8v-120h16    c4.418-0.001,7.999-3.583,7.998-8.002C287.997,45.876,287.155,43.842,285.655,42.342z M255.999,39.998c-4.418,0-8,3.582-8,8v120    h-16v-120c0-4.418-3.582-8-8-8h-4.688l20.688-20.688l20.688,20.688H255.999z" fill="#FFFFFF"/>
	</g>
</g>
<g>
</g>
<g>
</g>
<g>
</g>
<g>
</g>
<g>
</g>
<g>
</g>
<g>
</g>
<g>
</g>
<g>
</g>
<g>
</g>
<g>
</g>
<g>
</g>
<g>
</g>
<g>
</g>
<g>
</g>
</svg>
