<?xml version="1.0" encoding="iso-8859-1"?>
<!-- Generator: Adobe Illustrator 19.0.0, SVG Export Plug-In . SVG Version: 6.00 Build 0)  -->
<svg xmlns="http://www.w3.org/2000/svg" xmlns:xlink="http://www.w3.org/1999/xlink" version="1.1" id="Capa_1" x="0px" y="0px" viewBox="0 0 512 512" style="enable-background:new 0 0 512 512;" xml:space="preserve" width="512px" height="512px">
<g>
	<g>
		<path d="M463.591,11.08H48.409C21.719,11.08,0,32.799,0,59.489v229.953c0,5.459,0,15.526,0,20.635    c0,26.689,21.719,48.409,48.409,48.409c15.154,0,142.391,0,157.606,0l-4.157,59.604h-59.574    c-33.216,0-60.237,27.021-60.237,60.237c0,12.461,10.132,22.593,22.593,22.593h302.722c12.461,0,22.593-10.132,22.593-22.593    c0-33.216-27.021-60.237-60.237-60.237h-59.574l-4.157-59.604c15.215,0,142.452,0,157.606,0c26.689,0,48.409-21.719,48.409-48.409    v-2.571v-18.064V59.489C512,32.799,490.281,11.08,463.591,11.08z M369.716,433.152c24.912,0,45.175,20.263,45.175,45.175    c0,4.157-3.374,7.531-7.531,7.531H104.639c-4.157,0-7.531-3.374-7.531-7.531c0-24.912,20.263-45.175,45.175-45.175    C168.985,433.152,343.53,433.152,369.716,433.152z M216.95,418.09l4.157-59.604h69.786l4.157,59.604H216.95z M496.938,281.911    h-78.522c-4.167,0-7.531,3.364-7.531,7.531c0,4.157,3.364,7.531,7.531,7.531h78.522v10.533c0,19.801-16.116,35.917-35.917,35.917    h-156.09h-97.861H50.979c-19.801,0-35.917-16.116-35.917-35.917v-10.533h373.231c4.157,0,7.531-3.374,7.531-7.531    c0-4.167-3.374-7.531-7.531-7.531H15.062V59.489c0-18.385,14.961-33.347,33.347-33.347h415.183    c18.385,0,33.347,14.961,33.347,33.347V281.911z" fill="#ffffff"/>
	</g>
</g>
<g>
	<g>
		<path d="M232.644,55.041h-43.87c-11.467,0-20.795,9.328-20.795,20.795v43.871c0,11.467,9.328,20.795,20.795,20.795h43.87    c11.467,0,20.795-9.328,20.795-20.795V75.836C253.44,64.369,244.111,55.041,232.644,55.041z M238.378,119.707L238.378,119.707    c0,3.161-2.573,5.734-5.734,5.734h-43.87c-3.161,0-5.734-2.573-5.734-5.734V75.836c0-3.161,2.573-5.734,5.734-5.734h43.87    c3.161,0,5.734,2.573,5.734,5.734V119.707z" fill="#ffffff"/>
	</g>
</g>
<g>
	<g>
		<path d="M349.99,56.791c-3.807-1.676-8.252,0.054-9.926,3.862c-1.675,3.808,0.054,8.252,3.862,9.926    c2.103,0.925,3.46,2.988,3.46,5.258v43.871c0,3.161-2.573,5.734-5.734,5.734h-43.87c-3.161,0-5.733-2.573-5.733-5.734V75.836    c0-3.161,2.573-5.734,5.733-5.734h19.207c4.16,0,7.531-3.371,7.531-7.531c0-4.16-3.371-7.531-7.531-7.531h-19.207    c-11.467,0-20.795,9.328-20.795,20.795v43.871c0,11.467,9.328,20.795,20.795,20.795h43.87c11.467,0,20.795-9.328,20.795-20.795    v-43.87C362.451,67.595,357.56,60.12,349.99,56.791z" fill="#ffffff"/>
	</g>
</g>
<g>
	<g>
		<path d="M450.661,55.041H406.79c-11.467,0-20.795,9.328-20.795,20.795v43.871c0,11.467,9.328,20.795,20.795,20.795h43.871    c11.467,0,20.795-9.328,20.795-20.795V75.836C471.457,64.369,462.128,55.041,450.661,55.041z M456.395,119.707    c0,3.161-2.573,5.734-5.734,5.734H406.79c-3.161,0-5.734-2.573-5.734-5.734V75.836c0-3.161,2.573-5.734,5.734-5.734h43.871    c3.161,0,5.734,2.573,5.734,5.734V119.707z" fill="#ffffff"/>
	</g>
</g>
<g>
	<g>
		<path d="M232.644,154.048h-43.87c-11.467,0-20.795,9.328-20.795,20.795v43.87c-0.004,15.469,17.622,26.013,22.384,15.184    c1.675-3.808-0.054-8.252-3.862-9.926c-2.103-0.925-3.46-2.988-3.46-5.258v-43.871c0-3.161,2.573-5.734,5.734-5.734h43.87    c3.161,0,5.734,2.573,5.734,5.734v43.871c0,3.161-2.573,5.734-5.734,5.734h-19.207c-4.16,0-7.531,3.371-7.531,7.531    c0,4.16,3.371,7.531,7.531,7.531h19.207c11.467,0,20.795-9.328,20.795-20.795v-43.871    C253.44,163.376,244.111,154.048,232.644,154.048z" fill="#ffffff"/>
	</g>
</g>
<g>
	<g>
		<path d="M341.653,154.048h-43.87c-11.467,0-20.795,9.328-20.795,20.795v43.871c0,11.467,9.328,20.795,20.795,20.795h43.87    c11.467,0,20.795-9.328,20.795-20.795v-43.871C362.449,163.376,353.12,154.048,341.653,154.048z M347.387,218.715    c0,3.161-2.573,5.734-5.734,5.734h-43.87c-3.161,0-5.734-2.573-5.734-5.734v-43.871c0-3.161,2.573-5.734,5.734-5.734h43.87    c3.161,0,5.734,2.573,5.734,5.734V218.715z" fill="#ffffff"/>
	</g>
</g>
<g>
	<g>
		<path d="M450.661,154.048H406.79c-11.467,0-20.795,9.328-20.795,20.795v43.871c0,11.467,9.328,20.795,20.795,20.795h43.871    c11.467,0,20.795-9.328,20.795-20.795v-43.871C471.457,163.376,462.128,154.048,450.661,154.048z M456.395,218.715    c0,3.161-2.573,5.734-5.734,5.734H406.79c-3.161,0-5.734-2.573-5.734-5.734v-43.871c0-3.161,2.573-5.734,5.734-5.734h43.871    c3.161,0,5.734,2.573,5.734,5.734V218.715z" fill="#ffffff"/>
	</g>
</g>
<g>
	<g>
		<path d="M126.87,54.545H52.145c-9.742,0-17.669,7.927-17.669,17.668v91.247c0.001,9.742,7.927,17.668,17.669,17.668h74.725    c9.742,0,17.668-7.927,17.668-17.668V72.213C144.539,62.471,136.612,54.545,126.87,54.545z M61.107,163.931    c0.756-10.495,7.019-19.975,16.387-24.543c2.272-1.109,3.836-3.281,4.165-5.787c0.33-2.506-0.619-5.01-2.527-6.667    c-3.714-3.227-5.844-7.953-5.844-12.963c0-9.32,7.306-16.903,16.288-16.903c8.98,0,16.287,7.583,16.287,16.903    c0,5.011-2.13,9.736-5.844,12.963c-1.908,1.657-2.858,4.161-2.527,6.667c0.329,2.505,1.894,4.678,4.165,5.787    c9.368,4.569,15.631,14.048,16.387,24.543H61.107z M129.478,148.255c-2.93-6.786-7.483-12.802-13.282-17.402    c12.843-21.024-1.897-48.846-26.619-48.846c-17.286,0-31.35,14.339-31.35,31.965c0,6.041,1.668,11.87,4.729,16.882    c-5.885,4.668-10.493,10.792-13.417,17.702V72.213c0-1.413,1.193-2.607,2.607-2.607h74.725c1.413,0,2.607,1.193,2.607,2.607    V148.255z" fill="#ffffff"/>
	</g>
</g>
<g>
	<g>
		<path d="M137.86,196.446H39.852c-4.16,0-7.531,3.371-7.531,7.531c0,4.16,3.371,7.531,7.531,7.531h98.007    c4.16,0,7.531-3.371,7.531-7.531C145.39,199.817,142.019,196.446,137.86,196.446z" fill="#ffffff"/>
	</g>
</g>
<g>
	<g>
		<path d="M137.86,222.447H39.852c-4.16,0-7.531,3.371-7.531,7.531s3.371,7.531,7.531,7.531h98.007c4.16,0,7.531-3.371,7.531-7.531    S142.019,222.447,137.86,222.447z" fill="#ffffff"/>
	</g>
</g>
<g>
	<g>
		<path d="M137.86,249.45H39.852c-4.16,0-7.531,3.371-7.531,7.531c0,4.16,3.371,7.531,7.531,7.531h98.007    c4.16,0,7.531-3.371,7.531-7.531C145.39,252.821,142.019,249.45,137.86,249.45z" fill="#ffffff"/>
	</g>
</g>
<g>
	<g>
		<path d="M271.966,301.952h-31.931c-6.976,0-12.652,5.675-12.652,12.653v10.593c0,6.976,5.675,12.652,12.652,12.652h31.932    c6.976,0,12.652-5.675,12.652-12.652v-10.593C284.617,307.628,278.942,301.952,271.966,301.952z M269.556,322.788h-27.111v-5.774    h27.111V322.788z" fill="#ffffff"/>
	</g>
</g>
<g>
</g>
<g>
</g>
<g>
</g>
<g>
</g>
<g>
</g>
<g>
</g>
<g>
</g>
<g>
</g>
<g>
</g>
<g>
</g>
<g>
</g>
<g>
</g>
<g>
</g>
<g>
</g>
<g>
</g>
</svg>
