<?xml version="1.0" encoding="utf-8"?>
<!-- Generator: Adobe Illustrator 22.1.0, SVG Export Plug-In . SVG Version: 6.00 Build 0)  -->
<svg version="1.1" id="Capa_1" xmlns="http://www.w3.org/2000/svg" xmlns:xlink="http://www.w3.org/1999/xlink" x="0px" y="0px"
	 viewBox="0 0 512 512" style="enable-background:new 0 0 512 512;" xml:space="preserve">
<style type="text/css">
	.st0{fill:#FFFFFF;}
</style>
<g>
	<g>
		<path class="st0" d="M204.2,327.9c-1.9-1.9-4.4-2.9-7.1-2.9s-5.2,1.1-7.1,2.9c-1.9,1.9-2.9,4.4-2.9,7.1s1.1,5.2,2.9,7.1
			c1.9,1.9,4.4,2.9,7.1,2.9s5.2-1.1,7.1-2.9c1.9-1.9,2.9-4.4,2.9-7.1S206.1,329.8,204.2,327.9z"/>
	</g>
</g>
<g>
	<g>
		<path class="st0" d="M502,418h-7v-67c0-5.5-4.5-10-10-10s-10,4.5-10,10v67H37V164c0-15.5,11.9-28.3,27-29.9V342
			c0,23.2,18.8,42,42,42h300c23.2,0,42-18.8,42-42V134.2c15.1,1.5,27,14.3,27,29.9v109c0,5.5,4.5,10,10,10s10-4.5,10-10V164
			c0-26.6-20.8-48.3-47-49.9V62c0-23.2-18.8-42-42-42H106c-23.2,0-42,18.8-42,42v52.1c-26.2,1.6-47,23.3-47,49.9v254h-7
			c-5.5,0-10,4.5-10,10v14c0,27.6,22.4,50,50,50h412c27.6,0,50-22.4,50-50v-14C512,422.5,507.5,418,502,418z M84,62
			c0-12.1,9.9-22,22-22h300c12.1,0,22,9.9,22,22v30H84V62z M84,112h344v230c0,12.1-9.9,22-22,22H106c-11.1,0-20.3-8.3-21.8-19H160
			c5.5,0,10-4.5,10-10s-4.5-10-10-10H84V112z M492,442c0,16.5-13.5,30-30,30H50c-16.5,0-30-13.5-30-30v-4h6.8c0.1,0,0.2,0,0.2,0h458
			c0.1,0,0.2,0,0.2,0h6.8V442z"/>
	</g>
</g>
<g>
	<g>
		<path class="st0" d="M274,445h-36.1c-5.5,0-10,4.5-10,10s4.5,10,10,10H274c5.5,0,10-4.5,10-10S279.5,445,274,445z"/>
	</g>
</g>
<g>
	<g>
		<path class="st0" d="M492.1,304.9c-1.9-1.9-4.4-2.9-7.1-2.9s-5.2,1.1-7.1,2.9c-1.9,1.9-2.9,4.4-2.9,7.1s1.1,5.2,2.9,7.1
			c1.9,1.9,4.4,2.9,7.1,2.9s5.2-1.1,7.1-2.9c1.9-1.9,2.9-4.4,2.9-7.1S493.9,306.8,492.1,304.9z"/>
	</g>
</g>
<g>
	<g>
		<path class="st0" d="M398,56H230.9c-5.5,0-10,4.5-10,10s4.5,10,10,10H398c5.5,0,10-4.5,10-10S403.6,56,398,56z"/>
	</g>
</g>
<g>
	<g>
		<path class="st0" d="M150.6,58.9c-1.9-1.9-4.4-2.9-7.1-2.9c-2.6,0-5.2,1.1-7.1,2.9c-1.9,1.9-2.9,4.4-2.9,7.1
			c0,2.6,1.1,5.2,2.9,7.1c1.9,1.9,4.4,2.9,7.1,2.9c2.6,0,5.2-1.1,7.1-2.9c1.9-1.9,2.9-4.4,2.9-7.1S152.5,60.8,150.6,58.9z"/>
	</g>
</g>
<g>
	<g>
		<path class="st0" d="M121,58.9c-1.9-1.9-4.4-2.9-7.1-2.9c-2.6,0-5.2,1.1-7.1,2.9s-2.9,4.4-2.9,7.1c0,2.6,1.1,5.2,2.9,7.1
			s4.4,2.9,7.1,2.9c2.6,0,5.2-1.1,7.1-2.9c1.9-1.9,2.9-4.4,2.9-7.1S122.9,60.8,121,58.9z"/>
	</g>
</g>
<g>
	<g>
		<path class="st0" d="M180.2,58.9c-1.9-1.9-4.4-2.9-7.1-2.9s-5.2,1.1-7.1,2.9c-1.9,1.9-2.9,4.4-2.9,7.1c0,2.6,1.1,5.2,2.9,7.1
			s4.4,2.9,7.1,2.9s5.2-1.1,7.1-2.9c1.9-1.9,2.9-4.4,2.9-7.1S182.1,60.8,180.2,58.9z"/>
	</g>
</g>
<g>
	<g>
		<path class="st0" d="M175,236.4c-5.5,0-10,4.5-10,10V263h-23.4l18.3-47.8c2-5.2-0.6-10.9-5.8-12.9c-5.2-2-10.9,0.6-12.9,5.8
			l-23.5,61.4c-1.2,3.1-0.8,6.5,1.1,9.2c1.9,2.7,4.9,4.3,8.2,4.3H165v16.6c0,5.5,4.5,10,10,10s10-4.5,10-10v-53.1
			C185,240.9,180.5,236.4,175,236.4z"/>
	</g>
</g>
<g>
	<g>
		<path class="st0" d="M384,236.4c-5.5,0-10,4.5-10,10V263h-23.4l18.3-47.8c2-5.2-0.6-10.9-5.8-12.9c-5.2-2-10.9,0.6-12.9,5.8
			l-23.5,61.4c-1.2,3.1-0.8,6.5,1.1,9.2c1.9,2.7,4.9,4.3,8.2,4.3H374v16.6c0,5.5,4.5,10,10,10s10-4.5,10-10v-53.1
			C394,240.9,389.5,236.4,384,236.4z"/>
	</g>
</g>
<g>
	<g>
		<path class="st0" d="M253.7,201.6c-29.8,0-54,24.2-54,54s24.2,54,54,54s54-24.2,54-54S283.5,201.6,253.7,201.6z M253.7,289.6
			c-18.7,0-34-15.3-34-34s15.3-34,34-34s34,15.3,34,34S272.5,289.6,253.7,289.6z"/>
	</g>
</g>
<g>
	<g>
		<path class="st0" d="M253.7,127c-5.5,0-10,4.5-10,10v35.8c0,5.5,4.5,10,10,10c5.5,0,10-4.5,10-10V137
			C263.7,131.5,259.2,127,253.7,127z"/>
	</g>
</g>
<g>
	<g>
		<path class="st0" d="M219.3,175.3l-21.4-21.4c-3.9-3.9-10.2-3.9-14.1,0c-3.9,3.9-3.9,10.2,0,14.1l21.4,21.4c2,2,4.5,2.9,7.1,2.9
			s5.1-1,7.1-2.9C223.2,185.5,223.2,179.2,219.3,175.3z"/>
	</g>
</g>
<g>
	<g>
		<path class="st0" d="M323.7,153.9c-3.9-3.9-10.2-3.9-14.1,0l-21.4,21.4c-3.9,3.9-3.9,10.2,0,14.1c2,2,4.5,2.9,7.1,2.9
			c2.6,0,5.1-1,7.1-2.9l21.4-21.4C327.6,164.1,327.6,157.8,323.7,153.9z"/>
	</g>
</g>
</svg>
