<?xml version="1.0" encoding="utf-8"?>
<!-- Generator: Adobe Illustrator 22.1.0, SVG Export Plug-In . SVG Version: 6.00 Build 0)  -->
<svg version="1.1" id="Capa_1" xmlns="http://www.w3.org/2000/svg" xmlns:xlink="http://www.w3.org/1999/xlink" x="0px" y="0px"
	 viewBox="0 0 512 512" style="enable-background:new 0 0 512 512;" xml:space="preserve">
<style type="text/css">
	.st0{fill:#FFFFFF;}
</style>
<g>
	<g>
		<g>
			<path class="st0" d="M428.7,63.2C387.9,22.5,333.7,0,276,0S164.1,22.5,123.4,63.2C83,103.6,60.6,157.1,60.1,214.1l-39.3,78.6
				c-1.8,3.5-0.5,7.8,2.9,9.8l36.4,21.9v116c0,4.1,3.4,7.5,7.5,7.5h72.6v56.6c0,4.1,3.4,7.5,7.5,7.5s7.5-3.4,7.5-7.5v-64.1
				c0-4.1-3.4-7.5-7.5-7.5H75.1V320.1c0-2.6-1.4-5.1-3.6-6.4l-34.1-20.5l37-73.9c0.5-1,0.8-2.2,0.8-3.4C75.1,105.1,165.3,15,276,15
				s200.9,90.1,200.9,200.9c0,62.2-28.2,120-77.3,158.4c-1.8,1.4-2.9,3.6-2.9,5.9v124.3c0,4.1,3.4,7.5,7.5,7.5
				c4.1,0,7.5-3.4,7.5-7.5V383.8c51-41.2,80.2-102.2,80.2-167.9C492,158.2,469.5,104,428.7,63.2z"/>
		</g>
	</g>
	<g>
		<g>
			<path class="st0" d="M446.2,208.6l-73.9-18.5l54.8-53c2.5-2.4,3-6.2,1.3-9.2c-1.7-3-5.3-4.4-8.6-3.5l-73.3,20.9l20.9-73.3
				c0.9-3.3-0.5-6.8-3.5-8.6s-6.8-1.2-9.2,1.3l-53,54.8l-18.5-73.9c-0.8-3.3-3.8-5.7-7.3-5.7s-6.5,2.3-7.3,5.7l-18.5,73.9l-53-54.8
				c-2.4-2.5-6.2-3-9.2-1.3c-3,1.7-4.4,5.3-3.5,8.6l20.9,73.3l-73.3-20.9c-3.3-0.9-6.8,0.5-8.6,3.5c-1.7,3-1.2,6.8,1.3,9.2l54.8,53
				l-73.9,18.5c-3.3,0.8-5.7,3.8-5.7,7.3c0,3.4,2.3,6.5,5.7,7.3l73.9,18.5l-54.8,53c-2.5,2.4-3,6.2-1.3,9.2c1.7,3,5.3,4.4,8.6,3.5
				l73.3-20.9l-20.9,73.3c-0.9,3.3,0.5,6.8,3.5,8.6c3,1.7,6.8,1.2,9.2-1.3l53-54.8l18.5,73.9c0.8,3.3,3.8,5.7,7.3,5.7
				c3.4,0,6.5-2.3,7.3-5.7l18.5-73.9l53,54.8c2.4,2.5,6.3,3,9.3,1.2c2.9-1.7,4.3-5.3,3.3-8.5l-20.9-73.3l73.3,20.9
				c3.2,0.9,6.8-0.5,8.5-3.3c1.8-3,1.3-6.9-1.2-9.3l-54.8-53l73.9-18.5c3.3-0.8,5.7-3.8,5.7-7.3
				C451.9,212.5,449.5,209.5,446.2,208.6z M355.5,230.4c-5.6,1.4-7.6,8.7-3.4,12.7l42.9,41.5l-57.4-16.4c-5.6-1.6-10.9,3.7-9.3,9.3
				l16.4,57.4L303.2,292c-4-4.2-11.3-2.2-12.7,3.4L276,353.3l-14.5-57.9c-1.4-5.6-8.7-7.6-12.7-3.4l-41.5,42.9l16.4-57.4
				c1.6-5.6-3.7-10.9-9.3-9.3l-57.4,16.4l42.9-41.5c4.2-4,2.2-11.3-3.4-12.7l-57.9-14.5l57.9-14.5c5.6-1.4,7.6-8.7,3.4-12.7
				l-42.9-41.5l57.4,16.4c5.6,1.6,10.9-3.7,9.3-9.3l-16.4-57.4l41.5,42.9c4,4.2,11.3,2.2,12.7-3.4L276,78.5l14.5,57.9
				c1.4,5.6,8.7,7.6,12.7,3.4l41.5-42.9l-16.4,57.4c-1.6,5.6,3.7,10.9,9.3,9.3l57.4-16.4l-42.9,41.5c-2,1.9-2.7,4.7-2,7.3
				c0.7,2.6,2.8,4.7,5.4,5.3l57.9,14.5L355.5,230.4z"/>
		</g>
	</g>
	<g>
		<g>
			<path class="st0" d="M286.6,196.4c4.1,0,7.5-3.4,7.5-7.5v-22.3c0-9.9-8.1-18-18-18c-10.3,0-19,8.3-19,18c0,0,0,0.1,0,0.1l1,52.5
				c0,9.9,8.1,18,18,18c9.9,0,18-8.1,18-18c0-4.1-3.4-7.5-7.5-7.5c-4.1,0-7.5,3.4-7.5,7.5c0,1.7-1.3,3-3,3s-3-1.3-3-3
				c0,0,0-0.1,0-0.1l-1-52.5c0-1.3,2-3,4-3c1.7,0,3,1.3,3,3v22.3C279,193,282.4,196.4,286.6,196.4z"/>
		</g>
	</g>
	<g>
		<g>
			<g>
				<path class="st0" d="M292.7,254.4C292.7,254.3,293.1,255.4,292.7,254.4L292.7,254.4z"/>
				<path class="st0" d="M292.7,254.4c-2.6-6.9-10-11.3-17.2-11.1c-7.6,0.2-14.4,5.4-16.6,12.6c-2.3,7.3,0.3,15.4,6.5,19.9
					c6.1,4.5,14.5,4.7,20.7,0.5C293.1,271.6,296,262.2,292.7,254.4z M279,261.9c-0.7,3.8-6.6,2.6-5.9-1.1
					C273.8,256.9,279.8,258,279,261.9z"/>
			</g>
		</g>
	</g>
</g>
</svg>
