<?xml version="1.0" encoding="iso-8859-1"?>
<!-- Generator: Adobe Illustrator 19.0.0, SVG Export Plug-In . SVG Version: 6.00 Build 0)  -->
<svg xmlns="http://www.w3.org/2000/svg" xmlns:xlink="http://www.w3.org/1999/xlink" version="1.1" id="Capa_1" x="0px" y="0px" viewBox="0 0 511.999 511.999" style="enable-background:new 0 0 511.999 511.999;" xml:space="preserve" width="512px" height="512px">
<g>
	<g>
		<path d="M492.312,207.483H361.296c-10.632,0-19.281,8.649-19.281,19.281v265.954c0,10.632,8.649,19.281,19.281,19.281h131.016    c10.632,0,19.281-8.649,19.281-19.281V226.764C511.593,216.132,502.944,207.483,492.312,207.483z M492.312,496.973H361.296    c-2.306,0-4.255-1.948-4.255-4.255V348.818h139.525v143.901h0C496.567,495.025,494.618,496.973,492.312,496.973z M496.567,333.791    H357.042v-47.735h139.525V333.791z M496.567,271.03H357.042v-44.266c0-2.306,1.948-4.255,4.255-4.255h131.016    c2.306,0,4.255,1.948,4.255,4.255V271.03z" fill="#FFFFFF"/>
	</g>
</g>
<g>
	<g>
		<circle cx="466.609" cy="259.241" r="6.384" fill="#FFFFFF"/>
	</g>
</g>
<g>
	<g>
		<circle cx="486.475" cy="259.241" r="6.384" fill="#FFFFFF"/>
	</g>
</g>
<g>
	<g>
		<circle cx="466.609" cy="323.074" r="6.384" fill="#FFFFFF"/>
	</g>
</g>
<g>
	<g>
		<circle cx="486.475" cy="323.074" r="6.384" fill="#FFFFFF"/>
	</g>
</g>
<g>
	<g>
		<path d="M426.805,372.167c-16.568,0-30.047,13.479-30.047,30.047c0,28.821,38.062,38.579,38.062,22.032    c0-4.426-3.588-8.014-8.014-8.014c-7.73,0-14.019-6.288-14.019-14.019c0-7.731,6.289-14.019,14.019-14.019    s14.019,6.288,14.019,14.019c0,1.791-0.331,3.53-0.983,5.172c-1.634,4.112,0.376,8.773,4.488,10.407    c4.114,1.634,8.773-0.376,10.407-4.488c1.404-3.532,2.116-7.264,2.116-11.091C456.852,385.646,443.373,372.167,426.805,372.167z" fill="#FFFFFF"/>
	</g>
</g>
<g>
	<g>
		<path d="M150.704,207.483H19.687c-10.632,0-19.281,8.649-19.281,19.281v265.954c0,10.632,8.649,19.281,19.281,19.281h131.016    c10.632,0,19.281-8.649,19.281-19.281V226.764C169.985,216.132,161.335,207.483,150.704,207.483z M150.704,496.973H19.687    c-2.306,0-4.255-1.948-4.255-4.255V348.818h139.525v143.901h0.001C154.958,495.025,153.01,496.973,150.704,496.973z     M154.958,333.791H15.433v-47.735h139.525V333.791z M154.958,271.03H15.433v-44.266c0-2.306,1.948-4.255,4.255-4.255h131.016    c2.306,0,4.255,1.948,4.255,4.255V271.03z" fill="#FFFFFF"/>
	</g>
</g>
<g>
	<g>
		<circle cx="125.002" cy="259.241" r="6.384" fill="#FFFFFF"/>
	</g>
</g>
<g>
	<g>
		<circle cx="144.867" cy="259.241" r="6.384" fill="#FFFFFF"/>
	</g>
</g>
<g>
	<g>
		<circle cx="125.002" cy="323.074" r="6.384" fill="#FFFFFF"/>
	</g>
</g>
<g>
	<g>
		<circle cx="144.867" cy="323.074" r="6.384" fill="#FFFFFF"/>
	</g>
</g>
<g>
	<g>
		<path d="M85.195,372.168c-16.568,0-30.047,13.478-30.047,30.046c0,28.822,38.062,38.58,38.062,22.033    c0-4.426-3.588-8.014-8.014-8.014c-7.73,0-14.019-6.288-14.019-14.019c0-7.731,6.289-14.019,14.019-14.019    c9.921,0,16.667,10.051,13.036,19.191c-1.634,4.112,0.376,8.773,4.488,10.408c4.113,1.634,8.773-0.376,10.408-4.488    c1.404-3.532,2.116-7.264,2.116-11.091C115.243,385.646,101.764,372.168,85.195,372.168z" fill="#FFFFFF"/>
	</g>
</g>
<g>
	<g>
		<path d="M154.421,183.652c-4.149,0-7.513,3.363-7.513,7.513s3.364,7.513,7.513,7.513c11.697,0,21.214,9.516,21.214,21.214    c0,4.15,3.364,7.513,7.513,7.513c4.149,0,7.513-3.363,7.513-7.513C190.662,199.91,174.405,183.652,154.421,183.652z" fill="#FFFFFF"/>
	</g>
</g>
<g>
	<g>
		<path d="M154.421,136.729c-4.149,0-7.513,3.363-7.513,7.513s3.364,7.513,7.513,7.513c37.571,0,68.137,30.566,68.137,68.137    c0,4.15,3.364,7.513,7.513,7.513c4.149,0,7.513-3.363,7.513-7.513C237.586,174.036,200.279,136.729,154.421,136.729z" fill="#FFFFFF"/>
	</g>
</g>
<g>
	<g>
		<path d="M154.421,159.308c-4.149,0-7.513,3.363-7.513,7.513s3.364,7.513,7.513,7.513c25.121,0,45.559,20.436,45.559,45.558    c0,4.15,3.364,7.513,7.513,7.513c4.149,0,7.513-3.363,7.513-7.513C215.007,186.486,187.829,159.308,154.421,159.308z" fill="#FFFFFF"/>
	</g>
</g>
<g>
	<g>
		<path d="M320.458,136.729c-4.149,0-7.513,3.363-7.513,7.513c0,11.698-9.517,21.214-21.214,21.214    c-4.149,0-7.513,3.363-7.513,7.513s3.364,7.513,7.513,7.513c19.982,0,36.24-16.258,36.24-36.24    C327.971,140.092,324.607,136.729,320.458,136.729z" fill="#FFFFFF"/>
	</g>
</g>
<g>
	<g>
		<path d="M367.381,136.729c-4.149,0-7.513,3.363-7.513,7.513c0,37.571-30.566,68.137-68.137,68.137    c-4.149,0-7.513,3.363-7.513,7.513s3.364,7.513,7.513,7.513c45.857,0,83.164-37.306,83.164-83.164    C374.894,140.092,371.53,136.729,367.381,136.729z" fill="#FFFFFF"/>
	</g>
</g>
<g>
	<g>
		<path d="M344.802,136.729c-4.149,0-7.513,3.363-7.513,7.513c0,25.121-20.437,45.559-45.558,45.559    c-4.149,0-7.513,3.363-7.513,7.513s3.364,7.513,7.513,7.513c33.406,0,60.585-27.178,60.585-60.586    C352.315,140.092,348.951,136.729,344.802,136.729z" fill="#FFFFFF"/>
	</g>
</g>
<g>
	<g>
		<path d="M327.1,54.949c-2.438,0-4.867,0.235-7.248,0.697C315.065,24.183,287.827,0,255.046,0c-25.376,0-48.42,14.78-59.194,37.367    c-26.553-1.141-48.869,20.188-48.869,46.85c0,23.141,17.038,42.888,39.8,46.346c2.586,0.721,7.583,0.584,75.028,0.559    c4.426-0.002,8.013-3.59,8.011-8.017c-0.001-4.425-3.589-8.011-8.014-8.011c-0.148,0-18.585,0.007-18.716,0.007    c-59.406,0.021-51.003,0.002-53.241-0.291c-15.301-1.989-26.84-15.14-26.84-30.592c0-19.051,17.281-33.86,36.469-30.347    c3.849,0.705,7.649-1.477,8.98-5.157c7.07-19.552,25.791-32.686,46.586-32.686c28.842,0,50.403,24.586,49.515,49.949    c0.023,0.1-0.602,4.916,3.862,7.602c2.455,1.48,5.512,1.534,8.017,0.145c3.244-1.797,6.929-2.747,10.66-2.747    c12.16,0,22.052,9.893,22.052,22.052c0.002,11.952-9.939,22.051-21.706,22.051l-35.592,0.003    c-4.426,0.001-8.014,3.589-8.013,8.016c0.001,4.426,3.589,8.013,8.015,8.012l35.589-0.003c20.808,0,37.735-17.083,37.735-38.081    C365.181,72.032,348.098,54.949,327.1,54.949z" fill="#FFFFFF"/>
	</g>
</g>
<g>
</g>
<g>
</g>
<g>
</g>
<g>
</g>
<g>
</g>
<g>
</g>
<g>
</g>
<g>
</g>
<g>
</g>
<g>
</g>
<g>
</g>
<g>
</g>
<g>
</g>
<g>
</g>
<g>
</g>
</svg>
